<svg width="32" height="32" viewBox="0 0 32 32" fill="none" xmlns="http://www.w3.org/2000/svg">
<circle cx="16" cy="16" r="16" fill="#FF9C00"/>
<path d="M23.4608 14.1382C23.7729 12.1417 22.1844 11.0685 20.0124 10.3526L20.717 7.64826L18.9966 7.23806L18.3107 9.87123C17.8584 9.76329 17.394 9.66158 16.9323 9.56076L17.6232 6.9102L15.9039 6.5L15.1989 9.2035C14.8246 9.12195 14.457 9.04137 14.1004 8.95645L14.1024 8.94794L11.73 8.38104L11.2723 10.1393C11.2723 10.1393 12.5487 10.4193 12.5218 10.4365C13.2184 10.6029 13.3444 11.0442 13.3235 11.394L12.5209 14.4749C12.5688 14.4866 12.6311 14.5034 12.6997 14.5298C12.6423 14.5162 12.5813 14.5013 12.5179 14.4868L11.3928 18.8027C11.3077 19.0052 11.0916 19.3092 10.6045 19.1938C10.6218 19.2177 9.35414 18.8952 9.35414 18.8952L8.5 20.7796L10.7388 21.3136C11.1553 21.4136 11.5634 21.5182 11.9654 21.6165L11.2535 24.3519L12.9718 24.7621L13.6769 22.0557C14.1463 22.1777 14.6019 22.2902 15.0479 22.3962L14.3452 25.0898L16.0657 25.5L16.7775 22.7697C19.7111 23.301 21.917 23.0868 22.8455 20.5477C23.5936 18.5035 22.8082 17.3243 21.2649 16.5554C22.389 16.3073 23.2357 15.5998 23.4614 14.1384L23.4609 14.138L23.4608 14.1382ZM19.5301 19.4124C18.9985 21.4567 15.4015 20.3516 14.2353 20.0745L15.1801 16.4506C16.3462 16.7292 20.0858 17.2805 19.5302 19.4124H19.5301ZM20.0622 14.1086C19.5772 15.968 16.5834 15.0233 15.6123 14.7917L16.4688 11.505C17.4399 11.7366 20.5674 12.169 20.0623 14.1086H20.0622Z" fill="white"/>
</svg>
